<svg xmlns="http://www.w3.org/2000/svg" version="1.1" xmlns:xlink="http://www.w3.org/1999/xlink" viewBox="0 0 200 200"><rect width="200" height="200" fill="url('#gradient')"></rect><defs><linearGradient id="gradient" gradientTransform="rotate(45 0.5 0.5)"><stop offset="0%" stop-color="#dee90b"></stop><stop offset="100%" stop-color="#d9e241"></stop></linearGradient></defs><g><g fill="#1b3855" transform="matrix(2.9420590582601758,0,0,2.9420590582601758,6.839662089332606,120.90770371993446)" stroke="#0e5278" stroke-width="0.2"><path d="M1.07-14.22L5.58-14.22L8.75-4.33L11.91-14.22L16.43-14.22L16.43 0L12.99 0L12.99-3.32L13.32-10.12L9.88 0L7.62 0L4.17-10.13L4.50-3.32L4.50 0L1.07 0L1.07-14.22ZM30.64-7.47L30.64-6.82Q30.64-4.74 29.87-3.13Q29.10-1.53 27.68-0.67Q26.26 0.20 24.44 0.20Q22.63 0.20 21.22-0.64Q19.81-1.47 19.03-3.03Q18.24-4.58 18.20-6.59L18.20-6.59L18.20-7.39Q18.20-9.48 18.97-11.08Q19.74-12.68 21.17-13.54Q22.60-14.41 24.42-14.41L24.42-14.41Q26.23-14.41 27.65-13.55Q29.06-12.70 29.85-11.11Q30.63-9.52 30.64-7.47L30.64-7.47ZM27.16-6.76L27.16-7.41Q27.16-9.53 26.45-10.63Q25.74-11.73 24.42-11.73L24.42-11.73Q21.85-11.73 21.70-7.86L21.70-7.86L21.69-6.82Q21.69-4.73 22.38-3.60Q23.08-2.48 24.44-2.48L24.44-2.48Q25.74-2.48 26.45-3.58Q27.15-4.69 27.16-6.76L27.16-6.76ZM40.21 0L37.70-5.02L35.84-5.02L35.84 0L32.41 0L32.41-14.22L38.01-14.22Q40.54-14.22 41.96-13.10Q43.39-11.97 43.39-9.92L43.39-9.92Q43.39-8.44 42.79-7.46Q42.19-6.48 40.91-5.88L40.91-5.88L43.88-0.15L43.88 0L40.21 0ZM35.84-11.57L35.84-7.67L38.01-7.67Q38.98-7.67 39.48-8.18Q39.97-8.69 39.97-9.61Q39.97-10.53 39.47-11.05Q38.97-11.57 38.01-11.57L38.01-11.57L35.84-11.57ZM49.11-14.22L49.11 0L45.69 0L45.69-14.22L49.11-14.22ZM58.83-3.78L58.83-3.78Q58.83-4.53 58.30-4.95Q57.76-5.37 56.43-5.82Q55.09-6.27 54.24-6.69L54.24-6.69Q51.47-8.05 51.47-10.42L51.47-10.42Q51.47-11.60 52.16-12.50Q52.85-13.41 54.11-13.91Q55.37-14.41 56.94-14.41L56.94-14.41Q58.48-14.41 59.69-13.87Q60.91-13.32 61.58-12.31Q62.26-11.30 62.26-10L62.26-10L58.84-10Q58.84-10.87 58.31-11.35Q57.77-11.83 56.87-11.83L56.87-11.83Q55.95-11.83 55.42-11.42Q54.88-11.02 54.88-10.39L54.88-10.39Q54.88-9.84 55.47-9.40Q56.05-8.96 57.53-8.48Q59.00-8.01 59.95-7.46L59.95-7.46Q62.26-6.13 62.26-3.80L62.26-3.80Q62.26-1.93 60.85-0.87Q59.44 0.20 56.99 0.20L56.99 0.20Q55.26 0.20 53.86-0.42Q52.46-1.04 51.75-2.12Q51.04-3.20 51.04-4.61L51.04-4.61L54.48-4.61Q54.48-3.47 55.07-2.92Q55.66-2.38 56.99-2.38L56.99-2.38Q57.84-2.38 58.33-2.75Q58.83-3.12 58.83-3.78Z"></path></g></g></svg>